<?xml version="1.0" standalone="no"?><!DOCTYPE svg PUBLIC "-//W3C//DTD SVG 1.1//EN" "http://www.w3.org/Graphics/SVG/1.1/DTD/svg11.dtd"><svg t="1764850988754" class="icon" viewBox="0 0 1024 1024" version="1.1" xmlns="http://www.w3.org/2000/svg" p-id="1623" xmlns:xlink="http://www.w3.org/1999/xlink" width="200" height="200"><path d="M794.069333 113.777778H229.930667L28.444444 669.866667v238.321777h967.111112V669.866667L794.069333 113.777778zM357.12 325.205333l52.224 53.703111c-30.663111 39.253333-21.930667 82.944 7.168 112.810667 41.870222 43.064889 117.788444 50.332444 170.097778 16.682667 55.281778-35.555556 59.875556-101.162667 18.133333-144.071111-17.863111-18.389333-44.288-32.611556-78.862222-38.485334l-8.149333 59.064889-99.285334-102.158222 124.558222-80.440889-7.936 59.306667c53.944889 7.466667 99.527111 31.971556 131.484445 64.853333 71.850667 73.856 58.339556 177.322667-29.454222 233.813333-86.684444 55.68-213.973333 43.491556-283.576889-28.046222-56.846222-58.353778-61.966222-143.786667 3.598222-207.032889z m557.852444 503.537778H109.041778v-119.153778h805.916444v119.153778z m-120.888888-59.576889c0-5.262222 2.133333-10.311111 5.902222-14.037333a20.295111 20.295111 0 0 1 28.501333 0 19.712 19.712 0 0 1 0 28.088889 20.295111 20.295111 0 0 1-28.501333 0 19.712 19.712 0 0 1-5.902222-14.051556z" fill="#000000" p-id="1624"></path></svg>