<?xml version="1.0"?><svg xmlns="http://www.w3.org/2000/svg" viewBox="0 0 128 128"><g fill="#1d1d1b"><path d="m121.17 17.03c-.22-6.83-4.51-9.25-9.69-10.24-5.17-.99-18.39-.88-45.25-.66s-39.41.22-49.54.88-8.37 11.45-9.03 25.98-1.32 41.61-.83 49.38c.5 7.76 6.11 13.21 11.23 13.38s35.17.17 35.17.17l.77 8.86s-11.01 5.83-14.75 8.26c-3.74 2.42 0 8.59 3.3 8.92s38.31-.55 41.5-.66 4.73-5.39 1.98-7.71c-2.75-2.31-12.66-9.47-12.66-9.47l.11-8.26s26.09-.44 35.78-.99 11.67-6.17 11.89-11.23.22-59.78 0-66.61zm-38.37 101.26c-2.64.25-37.16.74-39.63.66-2.48-.08-1.32-3.22-1.32-3.22l42.27-.33s1.32 2.64-1.32 2.89zm-2.64-5.45c0 .41-34.02.5-34.43.33s11.48-6.85 11.64-7.35c.17-.5-1.32-9.83-1.32-9.83l14.53-.08s-.5 9.66-.25 9.99 9.83 6.52 9.83 6.94zm28.32-20.98c-8.75.41-43.6.58-62.09.41-18.5-.17-24.69-.25-28.82-.74s-7.27-5.53-7.51-12.8c-.25-7.27.33-24.52.66-35.09.37-11.72.91-27.5 1.32-29.06.41-1.57 2.81-4.87 10.4-4.95 7.6-.08 30.88 0 50.53-.08s32.53-.17 37.9.58c5.37.74 6.94 3.55 6.94 10.16s.17 49.38.17 56.06-.74 15.11-9.5 15.52z"/><path d="m114.76 67.18c-.08-5.12 0-39.55-.41-45.91s-2.64-8.17-7.43-8.34-15.77-.99-40.79-1.16-37.98.17-43.27.41c-5.28.25-7.51 3.14-7.68 6.77 0 0-.83 27.91-.91 37.49s-.25 14.94.74 18.17c.99 3.22 3.63 2.64 26.5 1.98s59.86-.33 66.47-.58 6.85-3.72 6.77-8.83zm-7.02 5.86c-4.95.17-30.96 0-51.94.58-20.97.58-32.78.66-35.09.91s-3.72-2.39-3.88-7.02c-.17-4.62.66-43.51.66-43.51.17-5.04-.74-9.17 8.5-9.41 9.25-.25 34.76-.58 54.74-.17s24.77.99 26.83 1.32 4.05.25 4.13 5.86.58 32.2.66 40.71c.08 8.5.33 10.57-4.62 10.73z"/><path d="m20.55 19.45c.27-.53 2.31-.25 2.81.25s.5 8.34 0 8.42-2.81.41-3.06-.17-.08-7.84.25-8.5z"/><path d="m87.1 85.34c-.48-.87 1.73-1.9 2.31-1.73s3.88 4.21 3.88 4.71-1.82.74-2.23.74-3.47-2.81-3.96-3.72z"/><path d="m91.64 81.87c-.48-.87 1.73-1.9 2.31-1.73s7.6 7.93 7.6 8.42-1.82.74-2.23.74-7.18-6.52-7.68-7.43z"/><path d="m97.17 79.97c-.48-.87 1.73-1.9 2.31-1.73s9 8.67 9 9.17-1.98.66-2.39.66-8.42-7.18-8.92-8.09z"/><path d="m103.86 79.64c-.48-.87 1.73-1.9 2.31-1.73s7.02 7.1 7.02 7.6-1.98.66-2.39.66-6.44-5.61-6.94-6.52z"/><path d="m111.04 79.56c-.48-.87 1.73-1.9 2.31-1.73s2.06 2.56 2.06 3.06-1.49 1.32-1.9 1.32-1.98-1.73-2.48-2.64z"/><path d="m37.88 54.13c-.29-.87 1.32-2.23 2.15-1.82s12.22 13.54 11.89 14.45-1.9 1.16-2.31 1.07-11.48-12.96-11.72-13.71z"/><path d="m44.74 43.15c-.29-.87 1.32-2.23 2.15-1.82s19.9 19.4 19.57 20.31-1.9 1.16-2.31 1.07-19.16-18.83-19.4-19.57z"/><path d="m56.05 31.59c-.29-.87 1.32-2.23 2.15-1.82s22.38 22.38 22.05 23.28-1.9 1.16-2.31 1.07-21.63-21.8-21.88-22.54z"/><path d="m72.81 27.62c-.29-.87 1.32-2.23 2.15-1.82s16.84 15.44 16.51 16.35-1.9 1.16-2.31 1.07-16.1-14.86-16.35-15.61z"/><path d="m59.68 107.63c-.6-.6.66-1.9 1.65-1.82s3.8 2.48 3.22 2.89-2.31.41-3.06.33-1.4-.99-1.82-1.4z"/><path d="m59.02 103.18c-.17-.3.99-2.23 1.49-2.23s6.77 3.06 6.77 3.55-1.32 1.4-1.65 1.57-6.19-2.15-6.61-2.89z"/><path d="m60.92 99.62c-.25-.22 1.57-2.48 2.06-2.48s4.29 2.31 4.13 2.64-.91 1.24-1.57 1.32-3.8-.74-4.62-1.49z"/></g></svg>