<?xml version="1.0"?><svg xmlns="http://www.w3.org/2000/svg" viewBox="0 0 128 128"><g fill="#1d1d1b"><path d="m111.92 78.46c-1.57-13.46-7.43-23.94-7.43-23.94s.33-15.44-6.11-28.73-14.7-20.64-33.52-20.06c-18.83.58-27.99 8.75-34.1 21.14s-3.96 26.5-3.96 26.5c-7.02 9.25-11.72 33.11-11.72 38.81s1.4 10.9 4.71 10.98c3.3.08 5.61-4.71 5.61-4.71 3.14 7.43 9.66 10.65 9.66 10.65-4.46-.25-12.3 4.71-7.51 10.24s26.01 1.65 26.01 1.65h21.3c18.58 3.06 27-.91 26.09-6.28s-9.08-5.37-9.08-5.37c7.93-4.46 11.56-14.04 11.56-14.04s5.12 5.61 7.51 4.95 2.56-8.34.99-21.8zm-75.72-54.33c8.5-11.15 15.27-15.1 29.23-15.03 16.27.08 22.52 6.24 28.65 18.66 6.11 12.39 4.95 26.75 4.95 26.75s-47.23 7.02-69.52-2.06c0 0-1.82-17.17 6.69-28.32zm-7.76 31.71s15.11 4.29 35.75 4.13c20.64-.17 36.08-2.23 36.08-2.23s2.15 3.55 3.88 9.83c0 0-10.65 4.13-29.06 3.96s-19.24-1.16-19.9-.25-.58 15.44-.58 15.44-3.96.08-7.27 0c-3.3-.08-3.72-.41-3.72-1.98s-.08-11.64 0-13.05c.08-1.4-.83-2.64-2.56-2.81s-5.28-.33-9.74-1.24-6.94-1.82-6.94-1.82 1.49-6.11 4.05-9.99zm5.28 45.58c-4.46-6.44-4.79-10.82-5.86-11.31-1.07-.5-1.9-.66-3.06.66s-3.47 6.52-5.61 6.44-.58-11.23.33-15.61 4.13-13.38 4.13-13.38 4.38 2.15 11.31 2.89c0 0-2.31 26.34 10.16 39.47 0 0-6.94-2.72-11.39-9.17zm-3.22 15.93c-3.55-3.63 5.95-6.11 9.33-6.11 0 0 5.95 4.71 9.41 6.61 0 0-15.19 3.14-18.74-.5zm42.03-1.56c-3.3.33-15.28.33-17.26.25s-5.77-3.19-9.83-9.99c-5.12-8.59-7.27-17.34-7.68-34.35l2.56.33s.25 14.61.41 15.36c.17.74.5 2.06 5.2 2.72 4.71.66 8.42.33 9.58-.17s2.39-1.57 2.39-4.46.08-10.98.08-10.98 7.93.33 15.94.17c8.01-.17 16.1-.83 16.1-.83s1.4 13.87-2.89 23.78-11.31 17.83-14.61 18.17zm25.1.49c-1.57 3.55-18.83 1.73-19.73 1.49 0 0 5.7-1.4 10.98-6.19 0 0 10.32 1.16 8.75 4.71zm11.31-20.23s-3.72-3.55-5.37-5.86-2.97-.66-3.72 1.4c-.74 2.06-8.34 17.42-17.5 19.07 0 0 8.5-9.41 9.58-19.24 1.07-9.83.99-18 .99-18s8.5-1.49 11.97-2.72c0 0 5.78 13.13 4.05 25.35z"/><path d="m60.72 83.42c-.79-.69.66-2.23 1.57-2.06s3.63 3.3 3.72 4.05-.74 1.4-1.32 1.32-3.3-2.72-3.96-3.3z"/><path d="m63.94 79.54c-.79-.69.66-2.23 1.57-2.06s4.13 4.38 4.21 5.12-.74 1.4-1.32 1.32-3.8-3.8-4.46-4.38z"/><path d="m95.24 79.21c-.79-.69 1.16-2.56 2.06-2.39.91.17 7.84 7.02 7.93 7.76s-1.16 1.65-1.73 1.57c-.58-.08-7.6-6.36-8.26-6.94z"/><path d="m95.4 85.24c-.79-.69.74-2.23 1.65-2.06s2.72 2.48 2.81 3.22-.74 1.32-1.32 1.24-2.48-1.82-3.14-2.39z"/><path d="m99.2 75.66c-.79-.69.74-2.23 1.65-2.06s3.72 3.55 3.8 4.29-.74 1.32-1.32 1.24-3.47-2.89-4.13-3.47z"/><path d="m87.97 64.59c-.79-.69.74-2.23 1.65-2.06s3.72 3.55 3.8 4.29-.74 1.32-1.32 1.24-3.47-2.89-4.13-3.47z"/><path d="m93.01 63.02c-.79-.69.74-2.23 1.65-2.06s3.72 3.55 3.8 4.29-.74 1.32-1.32 1.24-3.47-2.89-4.13-3.47z"/><path d="m33.81 40.57c-.42-1.48.74-5.78 2.56-9.66s4.21-5.94 5.04-6.03c.83-.08 1.57.74.99 1.98s-2.97 2.72-4.05 5.78c-1.07 3.06-1.32 6.44-1.32 7.18s-2.89 1.9-3.22.74z"/><path d="m84.5 51.55c-.62-.8.99-2.15 1.9-1.9s5.53 3.06 5.2 3.72-1.82.91-2.48.74-4.05-1.82-4.62-2.56z"/><path d="m86.98 46.76c-.62-.8.99-2.15 1.9-1.9s7.76 5.61 7.43 6.28-1.82.91-2.48.74-6.28-4.38-6.85-5.12z"/><path d="m88.88 41.72c-.62-.8.99-2.15 1.9-1.9s5.78 3.96 5.45 4.62-1.82.91-2.48.74-4.29-2.72-4.87-3.47z"/><path d="m88.8 35.94c-.62-.8.99-2.15 1.9-1.9s4.13 2.89 3.8 3.55-.99 1.24-1.65 1.07-3.47-1.98-4.05-2.72z"/><path d="m88.63 29.75c-.62-.8.99-2.15 1.9-1.9s2.31 1.65 1.98 2.31-.99 1.24-1.65 1.07-1.65-.74-2.23-1.49z"/><path d="m55.03 17.69c-9.39.78-9.91 21.14-.17 21.06s10.07-21.88.17-21.06zm-.09 18.83c-6.52.41-6.36-14.94.08-15.52 5.51-.49 5.69 15.16-.08 15.52z"/><path d="m58.38 28.46c.03-2.23-.77-3.61-2.62-3.54s-2.67 2.14-2.71 4.31c-.05 2.17 1.3 3.97 3.08 3.97 1.79 0 2.23-3.47 2.25-4.74z"/><path d="m74.35 17.78c-9.66.08-10.16 21.47-.41 21.39 8.42-.07 8.34-21.45.41-21.39zm-.83 18.66c-5.28.08-5.78-15.44.33-15.61 5.2-.14 4.95 15.52-.33 15.61z"/><path d="m81.53 42.13c-2.15-.91-7.84-2.23-18.99-2.15s-15.28 1.82-17.83 3.05c-2.56 1.24-3.09 3.83-1.9 5.12 2.15 2.31 6.61 6.69 19.07 6.11 12.47-.58 17.5-4.21 20.23-6.44 2.72-2.23 1.57-4.79-.58-5.7zm-19.57 9c-11.15.33-16.1-2.89-16.35-4.71-.07-.52 4.62-3.72 15.52-3.72s18.83 1.49 18.99 2.56c.17 1.07-7.02 5.53-18.17 5.86z"/><path d="m70.88 30.08c0-.71 1.16-2.15 3.06-2.15s2.64 1.07 2.39 1.4-1.73-.33-2.81 0c-1.07.33-2.64 1.24-2.64.74z"/></g></svg>