<?xml version="1.0"?><svg xmlns="http://www.w3.org/2000/svg" viewBox="0 0 128 128"><g fill="#1d1d1b"><path d="m73.1 14.8c-23.13-3.32-36.51 4.93-45.87 15.99-9.35 11.06-11.67 29.67-9.45 40.13 2.21 10.46 8.05 17.8 8.05 17.8-2.01 3.92-5.17 14.52-3.72 15.89 1.81 1.71 14.69-5.53 14.69-5.53s23.74 18.81 50.79 3.62c27.06-15.19 24.04-43.25 21.62-52.6-2.41-9.35-12.98-31.99-36.11-35.3zm20.42 79.96c-15.79 14.48-36.81 11.47-44.46 8.05-7.64-3.42-10.96-6.04-11.67-6.14-.7-.1-11.16 5.43-12.77 5.33-.64-.04 2.11-7.64 3.22-10.46s1.31-3.62 1.01-4.12-11.57-13.78-6.14-32.09 20.32-32.09 37.22-34.5 32.79 1.61 42.14 19.11 7.24 40.33-8.55 54.82zm26.96-33.49c-1.01-9.96-3.82-32.99-24.24-46.97-20.42-13.98-43.46-13.18-61.26-.91s-25.15 31.48-26.05 46.57 6.44 28.67 6.44 28.67-6.24 20.22-7.54 23.74c-1.31 3.52-.6 3.82 1.11 6.64s3.92 4.53 8.95 4.12c5.03-.4 22.93-5.63 22.93-5.63 19.92 12.07 47.27 6.64 64.07-10.46s16.6-35.81 15.59-45.76zm-12.68 29.47c-15.49 27.36-46.07 27.06-56.53 23.64s-12.07-5.83-13.98-5.23-22.73 8.25-25.75 6.54c-.88-.5 1.31-5.63 3.12-12.67s4.53-13.38 4.22-14.58c-.3-1.21-8.15-12.47-6.54-31.99 1.61-19.51 13.18-32.79 23.84-40.13 10.67-7.35 36.59-16.26 60.66 2 17.1 12.98 26.45 45.06 10.96 72.42z"/><path d="m92.21 75.15c-2.11-2.82-9.05-7.74-11.27-8.35-2.21-.6-3.82.3-5.53 1.81s-4.83 4.32-4.83 4.32-4.12 0-10.26-4.73-8.15-9.96-8.15-9.96 2.72-2.31 2.82-2.72c.1-.4.8-5.63-.5-10.16-1.31-4.53-4.93-9.66-6.84-9.56-13.28.7-13.98 9.76-12.57 17.2s3.92 14.69 13.88 26.45c9.96 11.77 21.52 13.28 29.77 13.68s13.58-8.35 14.48-9.76 1.11-5.43-1.01-8.25zm-2.91 4.42c-.2.6-6.14 6.64-6.94 6.94s-15.09-.4-22.93-5.73c-7.85-5.33-12.77-12.27-17.7-20.32s-7.54-19.92 5.03-22.13c.79-.14 5.23 6.34 5.83 13.78 0 0-4.32 3.82-3.82 5.83s2.51 6.74 8.55 11.67c6.03 4.93 12.17 7.64 13.78 6.64 1.61-1.01 7.54-6.94 8.85-6.84s6.64 5.03 8.25 6.24 1.31 3.32 1.11 3.92z"/><path d="m43.43 41.76c1.2-.19 1.81 1.41 1.71 1.91s-1.91.8-2.21 3.22c-.3 2.41.5 4.33-.2 4.73s-2.51-.5-2.82-3.22c-.3-2.72 1.01-6.24 3.52-6.64z"/><path d="m74.11 79.88c-.41-1.45 1.31-1.61 2.31-1.11s3.02 2.82 3.02 3.62-1.01 1.21-2.01 1.01-2.92-2.11-3.32-3.52z"/><path d="m78.43 77.76c-.17-.69 0-1.91 1.61-1.81s4.63 3.72 4.63 4.63-.3 1.71-1.71 1.11-4.33-3.12-4.53-3.92z"/><path d="m82.36 75.35c-.32-.64.2-2.01 1.41-1.71s2.92 2.41 3.22 3.22-.5 2.41-.91 2.31-3.32-3.02-3.72-3.82z"/><path d="m17.48 106.03c-1.05-1.43.4-2.21 1.61-1.71s4.02 3.12 4.22 4.33-.3 1.91-.8 1.71-3.92-2.82-5.03-4.33z"/><path d="m15.87 108.34c1.42.13 3.62 2.72 3.52 3.32s-1.51.6-2.51.3-2.31-1.41-2.72-2.11c-.4-.7.6-1.61 1.71-1.51z"/><path d="m58.42 111.36c-.42-.66.91-1.81 2.01-1.61 1.11.2 4.33 3.52 4.02 4.02s-2.11.4-2.92.1-2.41-1.41-3.12-2.51z"/><path d="m65.46 110.86c-.39-.71 1.51-1.51 2.41-.91s3.12 2.92 3.02 3.42-1.91.6-2.72.5-2.11-1.91-2.72-3.02z"/><path d="m71.39 110.25c-.15-.59 1.51-1.21 2.31-.8s2.82 2.62 2.41 3.12-2.51.7-3.02.6-1.51-2.11-1.71-2.92z"/><path d="m78.03 108.94c-.29-.42 1.81-1.51 2.62-1.31s2.92 2.72 2.41 3.22c-.5.5-2.21.91-2.92.6s-1.41-1.51-2.11-2.51z"/><path d="m82.96 106.93c0-.64 1.41-1.41 2.11-1.11s2.01 1.91 1.71 2.72-1.71 1.31-2.31.91-1.51-1.61-1.51-2.51z"/><path d="m88.99 103.82c-.38-.63 1.31-1.71 1.91-1.51s2.21 1.91 2.01 2.62-1.51 1.51-2.21 1.21-1.41-1.81-1.71-2.31z"/><path d="m92.51 100.9c-.38-.63 1.31-1.71 1.91-1.51s2.21 1.91 2.01 2.62-1.51 1.51-2.21 1.21-1.41-1.81-1.71-2.31z"/><path d="m95.93 98.08c-.38-.63 1.31-1.71 1.91-1.51s2.21 1.91 2.01 2.62-1.51 1.51-2.21 1.21-1.41-1.81-1.71-2.31z"/><path d="m41.52 14.9c1.19-.3 1.11 1.21.91 1.71s-6.03 2.51-9.96 6.14-5.73 7.04-6.24 7.14-1.81-1.11-1.51-1.81 3.62-4.12 7.54-7.95c3.92-3.82 8.05-4.93 9.25-5.23z"/><path d="m92.31 20.94c-.91-.5-1.71-1.31-1.11-1.81s1.31-1.11 2.21-.5 4.43 3.62 7.34 6.34c2.92 2.72 4.43 5.23 4.12 5.73s-2.11.7-2.62.1-2.51-3.32-5.13-5.53-4.83-4.33-4.83-4.33z"/></g></svg>