<?xml version="1.0" standalone="no"?><!DOCTYPE svg PUBLIC "-//W3C//DTD SVG 1.1//EN" "http://www.w3.org/Graphics/SVG/1.1/DTD/svg11.dtd"><svg t="1768228672762" class="icon" viewBox="0 0 1024 1024" version="1.1" xmlns="http://www.w3.org/2000/svg" p-id="2565" xmlns:xlink="http://www.w3.org/1999/xlink" width="200" height="200"><path d="M512 0a512 512 0 1 0 512 512A512 512 0 0 0 512 0z m217.173333 674.986667a38.4 38.4 0 0 1-54.186666 54.186666L512 566.186667l-162.986667 162.986666a38.4 38.4 0 0 1-54.186666-54.186666L457.813333 512 294.826667 349.013333a38.4 38.4 0 0 1 54.186666-54.186666L512 457.813333l162.986667-162.986666a38.4 38.4 0 0 1 54.186666 54.186666L566.186667 512z" fill="#231815" p-id="2566"></path></svg>