<?xml version="1.0" standalone="no"?><!DOCTYPE svg PUBLIC "-//W3C//DTD SVG 1.1//EN" "http://www.w3.org/Graphics/SVG/1.1/DTD/svg11.dtd"><svg t="1764578661166" class="icon" viewBox="0 0 1024 1024" version="1.1" xmlns="http://www.w3.org/2000/svg" p-id="35446" xmlns:xlink="http://www.w3.org/1999/xlink" width="200" height="200"><path d="M512 0C228.096 0 0 228.096 0 512s228.096 512 512 512 512-228.096 512-512-228.096-512-512-512z" p-id="35447"></path><path d="M733.12 491.072L660.928 563.2c-9.28 9.28-11.648 20.928-9.28 32.64l16.256 102.4c4.672 30.208-25.6 53.44-51.2 39.488l-88.384-48.832a39.744 39.744 0 0 0-32.64 0l-88.384 48.832c-25.6 13.952-55.872-9.28-51.2-39.552l16.256-102.4c2.368-11.648-2.304-23.296-9.28-32.576L290.88 491.072c-20.928-20.992-9.28-58.24 18.624-62.848L409.6 414.272a33.536 33.536 0 0 0 25.6-20.992l44.16-93.056c14.08-27.904 51.2-27.904 62.912 0l44.16 93.056c4.672 11.648 14.016 18.624 25.6 20.992l100.096 13.952a37.312 37.312 0 0 1 20.992 62.848z" p-id="35448"></path></svg>