<?xml version="1.0" standalone="no"?><!DOCTYPE svg PUBLIC "-//W3C//DTD SVG 1.1//EN" "http://www.w3.org/Graphics/SVG/1.1/DTD/svg11.dtd"><svg t="1772349421923" class="icon" viewBox="0 0 1024 1024" version="1.1" xmlns="http://www.w3.org/2000/svg" p-id="2594" xmlns:xlink="http://www.w3.org/1999/xlink" width="200" height="200"><path d="M803.84 245.020444q39.537778 22.869333 62.407111 62.464 22.869333 39.594667 22.869333 85.333334v238.364444q0 45.738667-22.869333 85.333334t-62.464 62.464L597.333333 898.275556q-39.594667 22.869333-85.333333 22.869333t-85.333333-22.869333l-206.506667-119.239112q-39.537778-22.869333-62.407111-62.464-22.869333-39.594667-22.869333-85.333333v-238.364444q0-45.738667 22.869333-85.333334T220.16 245.020444L426.666667 125.724444Q466.261333 102.968889 512 102.968889t85.333333 22.869333l206.506667 119.239111z m-56.888889 98.531556L540.444444 224.312889q-28.444444-16.384-56.888888 0L277.048889 343.608889q-28.444444 16.384-28.444445 49.265778v238.364444q0 32.881778 28.444445 49.265778l206.506667 119.239111q28.444444 16.384 56.888888 0l206.506667-119.239111q28.444444-16.384 28.444445-49.265778v-238.364444q0-32.881778-28.444445-49.265778z m-236.657778 282.737778a113.777778 113.777778 0 1 0 0-227.555556 113.777778 113.777778 0 0 0 0 227.555556z" fill="#3A3A3A" p-id="2595"></path></svg>