<?xml version="1.0" standalone="no"?><!DOCTYPE svg PUBLIC "-//W3C//DTD SVG 1.1//EN" "http://www.w3.org/Graphics/SVG/1.1/DTD/svg11.dtd"><svg t="1771229263959" class="icon" viewBox="0 0 1025 1024" version="1.1" xmlns="http://www.w3.org/2000/svg" p-id="2547" xmlns:xlink="http://www.w3.org/1999/xlink" width="200.1953125" height="200"><path d="M696.505293 874.5216c-50.56512-48.42496-95.59552-95.76448-100.07552-105.20064-10.752-22.66112-5.77024-43.58144 14.41792-60.5696 26.9056-22.64064 43.4432-16.0256 99.49696 39.79264l47.61088 47.4112V228.0448l-47.45728 47.2576c-43.008 42.83392-49.25952 47.2576-66.7392 47.2576-23.71584 0-42.15808-11.44832-48.70656-30.2336-10.55744-30.2848-3.9424-39.76704 95.00672-136.1664 52.02944-50.688 100.52096-93.7984 107.76576-95.80544 8.16128-2.2528 19.27168-0.74752 29.19936 3.96288 8.81664 4.18304 56.7808 48.5888 106.5984 98.688C1018.435533 248.2944 1024.195533 255.29856 1024.195533 273.14176c0 23.49056-11.1104 41.2928-30.8736 49.47968-24.86784 10.30144-40.6528 2.01216-90.7264-47.62624L855.235533 228.0448V795.95008l44.8-44.43136c24.64256-24.43776 50.67776-46.6176 57.856-49.30048 30.6176-11.4176 60.04224 9.03168 64.87552 45.0816l2.85184 21.26848-96.99328 96.9984c-128.01024 128.01024-108.59008 127.2576-232.12032 8.95488zM28.841933 918.90176c-20.68992-10.79296-28.29312-22.45632-28.48256-43.69408-0.1792-20.1216 13.10208-38.15936 33.9456-46.08 13.9264-5.2992 410.4704-6.77376 436.21888-1.62304 54.85568 10.97216 54.85568 85.05856 0 96.03072-8.76032 1.75104-108.37504 3.1744-221.36832 3.15392-173.52192-0.0256-207.74912-1.23904-220.3136-7.78752z m-1.08544-363.80672C3.298253 543.0272-7.351347 510.06976 5.469133 486.1184 18.596813 461.58336 26.343373 460.8 256.277453 460.8c148.73088 0 219.10016 1.77664 226.816 5.71904 43.99616 22.5024 35.74784 83.82976-12.5696 93.4912-8.76032 1.75616-108.37504 3.13856-221.36832 3.072-174.35648-0.1024-207.85664-1.3056-221.39904-7.9872zM13.451213 178.80576C-8.482867 152.73984-3.035187 119.86944 25.693133 105.0112 38.339533 98.47296 73.964493 97.28 256.277453 97.28c148.73088 0 219.10016 1.77664 226.816 5.71904 31.29856 16.00512 38.6304 52.89472 15.34464 77.19936L484.680653 194.56H26.706893z" fill="#B9B9B9" p-id="2548"></path><path d="M689.224653 865.50528c-94.4384-94.06976-97.4336-97.6896-97.4336-117.76 0-28.7488 19.79392-48.63488 48.41984-48.63488 19.04128 0 23.94624 3.43552 69.12 48.42496l48.62464 48.42496V228.51072l-47.9488 47.02208c-43.97056 43.12064-49.60256 47.01184-67.84 46.90944-36.39296-0.2048-59.28448-32.63488-45.39904-64.29696 3.6096-8.22272 47.93856-56.07936 98.51904-106.3424 84.96128-84.43904 93.35808-91.392 110.3616-91.392 10.22464 0 24.77056 4.5568 32.7168 10.24 7.86944 5.632 52.89984 49.4592 100.0704 97.39264C1012.521933 243.328 1024.195533 257.37728 1024.195533 271.21664c0 37.72416-32.15872 63.44704-64.128 51.29216-7.92064-3.01056-34.74944-25.38496-59.61728-49.7152L855.235533 228.54144v567.3984l44.928-44.71808c49.32096-49.09056 66.4576-57.78944 92.39552-46.88384 20.18816 8.48896 34.49344 36.00896 29.48096 56.71424-2.3296 9.6256-35.52256 46.5664-97.09568 108.06272-125.53728 125.37856-105.92256 125.68064-235.7248-3.61472zM37.428173 922.4704c-37.6832-11.35104-49.152-56.27904-21.06368-82.45248 6.01088-5.60128 20.38272-11.56096 31.93856-13.24544 11.55584-1.6896 113.17248-2.3552 225.81248-1.4848 219.97056 1.70496 220.44672 1.76128 232.59648 28.43136 10.56256 23.18336 3.584 49.60768-16.64 63.0272-9.23136 6.13376-48.24064 7.55712-226.19648 8.28416-118.272 0.48128-220.17024-0.67072-226.44736-2.56z m1.16736-363.52c-24.35072-8.17152-38.4-25.3184-38.4-46.8736 0-16.9984 13.312-38.46656 28.01664-45.16352 17.88928-8.15104 428.94336-8.70912 452.16256-0.6144 33.6128 11.71456 41.86624 49.64864 16.88576 77.6192l-14.93504 16.7168-216.74496 0.8704c-119.20896 0.4864-221.35296-0.6656-226.98496-2.56zM13.451213 178.80576C6.160333 170.14272 0.195533 157.35296 0.195533 150.38976c0-18.66752 12.73344-40.02816 28.01664-46.99136 18.36032-8.36608 438.5792-8.73472 454.88128-0.39936 31.96416 16.34816 38.57408 52.15744 14.1312 76.5952L482.269133 194.56H26.706893z" fill="#A3A3A3" p-id="2549"></path><path d="M689.685453 865.96608c-94.53568-94.17216-96.96768-97.11616-96.96768-117.67296 0-23.3728 6.39488-33.6384 27.86304-44.73856 23.24992-12.02688 39.22944-3.9168 90.01472 45.68064l47.36 46.24896V228.51584l-47.9488 47.02208C665.693133 318.98624 660.496333 322.56 641.577933 322.56c-28.4928 0-47.46752-19.08224-47.46752-47.73376 0-20.0192 3.17952-23.95136 90.88-112.50688 49.98144-50.47296 97.41312-94.6176 105.39008-98.08896 27.11552-11.81184 38.36416-4.62848 123.1104 78.62272C1004.585933 232.34048 1024.195533 256.13312 1024.195533 277.16608c0 16.9472-23.08096 44.42624-38.4 45.71136-27.93984 2.35008-35.4304-1.95072-82.1504-47.15008L855.235533 228.89472v566.21056l48.4096-46.83264c42.83904-41.4464 50.5344-46.83264 66.89792-46.83264 24.03328 0 36.3264 6.94272 46.24384 26.12736 15.19616 29.38368 7.80288 41.1904-84.13184 134.3232-46.80704 47.41632-91.32032 89.46688-98.92352 93.44-7.60832 3.97824-21.30944 7.22944-30.45376 7.22944-14.73536 0-27.6224-10.9568-113.59232-96.59392zM37.489613 923.25888C21.238733 919.93088 0.195533 892.82048 0.195533 875.20768c0-9.216 5.69344-21.25824 14.94016-31.60576l14.94016-16.72192h452.23936l14.94016 16.72192c19.57888 21.9136 19.57888 41.92256 0.00512 63.83616l-14.93504 16.72192-216.74496 0.71168c-119.20896 0.38912-221.8496-0.33792-228.09088-1.6128z m1.10592-363.5968c-27.69408-7.04512-44.416-41.2672-33.29024-68.1216C17.705933 461.6192 24.320973 460.8 254.925773 460.8c140.2368 0 215.05024 1.87904 225.9456 5.67296 17.664 6.15936 31.32416 26.9824 31.32416 47.75424 0 7.13216-6.72256 20.49536-14.93504 29.696l-14.93504 16.7168-216.74496 0.8192c-119.20896 0.44544-221.35296-0.3584-226.98496-1.792zM19.200973 184.25856C-6.665267 163.91168-3.362867 122.99776 25.524173 105.9328 38.646733 98.18112 62.316493 97.28 252.381133 97.28c142.1056 0 217.58464 1.87392 228.48512 5.67296 32.16384 11.2128 40.89856 52.10624 16.36352 76.64128L482.264013 194.56H257.280973c-217.68704 0-225.408-0.3328-238.08-10.30144z" fill="#8C8C8C" p-id="2550"></path><path d="M695.199693 871.68c-50.64192-49.98144-95.13472-98.00704-98.87232-106.71104-11.47904-26.74688-1.36704-49.87904 26.9824-61.72672 24.31488-10.1632 38.72256-2.42176 89.84576 48.27648l44.8 44.42624V228.89472l-48.4096 46.83264c-39.92064 38.62016-51.2 46.83264-64.33792 46.83264-32.13824 0-50.68288-17.65888-50.92864-48.4864-0.1536-19.63008 3.1744-23.67488 95.98464-116.48 122.8288-122.8288 110.79168-120.58112 199.0656-37.19168C979.078093 205.16864 1024.195533 257.58208 1024.195533 277.0432c0 23.73632-24.2432 45.51168-50.67264 45.51168-19.33824 0-24.04352-3.2768-69.51424-48.37888L855.235533 225.80224v569.30304l48.4096-46.83264c43.84768-42.4192 50.2528-46.83264 67.98336-46.83264 10.76224 0 24.51456 3.46112 30.55616 7.69536 14.68416 10.28608 23.74656 38.39488 17.50016 54.28736-2.64704 6.74304-47.2064 54.30272-99.02592 105.69728-89.19552 88.46336-95.2576 93.44-113.792 93.44-18.50368 0-24.66304-5.01248-111.6672-90.88zM15.284173 908.51328c-16.8192-17.90464-16.8192-48.0768 0-65.98656L27.582413 829.44h453.3248l14.24896 12.25728c20.30592 17.46944 20.30592 50.176 0 67.64544L480.902093 921.6H27.577293z m1.75104-361.95328C2.141133 530.2784-1.442867 514.55488 5.187533 494.46912c11.19232-33.90976 14.04416-34.27328 257.34144-32.59904 235.06944 1.61792 232.82176 1.33632 244.87936 30.44864 7.81312 18.86208 1.62816 42.99776-14.21824 55.45984C480.518093 557.7472 472.797133 558.08 253.840333 558.08H27.587533z m2.34496-362.15808c-26.7264-21.02784-21.94432-64.42496 8.70912-78.976 25.61024-12.14976 430.39744-12.24704 455.98208-0.1024 30.88896 14.65344 35.76832 51.33312 10.22976 76.8768L481.936333 194.56H257.117133C40.643533 194.56 31.811533 194.18112 19.375053 184.40192z" fill="#767676" p-id="2551"></path><path d="M780.995533 952.832c-24.6016-15.52384-180.736-175.73376-186.5984-191.47776-12.31872-33.0752 26.46528-72.0128 59.44832-59.68384 7.98208 2.97984 34.67264 25.41056 59.31008 49.84832l44.8 44.42624V228.89472l-48.4096 46.83264C670.418893 313.57952 658.192333 322.56 645.786573 322.56 612.496333 322.56 594.115533 303.8208 594.115533 269.8752c0-14.41792 11.43296-27.7504 96.39424-112.39424C782.546893 65.78176 787.805133 61.44 806.841293 61.44c19.072 0 24.24832 4.3008 118.65088 98.70336C1013.786573 248.43776 1024.195533 260.6336 1024.195533 275.7376c0 24.51968-23.552 46.8224-49.4336 46.8224-17.82784 0-23.79776-4.28032-69.51424-49.82272L855.235533 222.91456v573.02016l42.24-41.55904c46.73536-45.98272 57.28256-52.93568 80.30208-52.93568 25.87648 0 48.128 29.70624 42.86464 57.23136-1.62304 8.48896-36.67968 47.1808-98.35008 108.544-104.18176 103.6544-108.52864 106.2912-141.29664 85.61664zM17.234893 909.34272C5.848013 899.54816 2.985933 892.75904 2.985933 875.52s2.86208-24.02816 14.24896-33.82272L31.488973 829.44h449.41312l14.25408 12.25728c20.30592 17.46944 20.30592 50.176 0 67.64544L480.902093 921.6H31.488973z m2.24256-361.344c-15.24224-11.99104-20.9152-34.90816-13.73696-55.49056 10.10176-28.9792 11.5712-29.14816 253.38368-29.14816h221.52704l12.94848 12.16512c7.1168 6.68672 14.3616 18.61632 16.09728 26.50624 3.67104 16.72192-8.0896 42.89536-22.81984 50.77504-6.31808 3.38432-89.4976 5.2736-232.21248 5.2736-213.46816 0-222.88384-0.40448-235.1872-10.0864z m0.45568-364.98432c-26.78784-22.7328-22.3232-63.12448 8.61184-77.7984 15.3088-7.2704 43.45856-8.08448 234.752-6.81472l217.36448 1.43872 12.93824 12.16512c7.1168 6.68672 14.3616 18.61632 16.09728 26.50624 4.08064 18.5856-9.32352 44.71808-26.24 51.1488-7.4752 2.8416-104.6016 4.8896-231.43424 4.87424L33.475533 194.5088z" fill="#606060" p-id="2552"></path><path d="M780.995533 952.88832c-8.448-5.2992-53.94944-48.64-101.12-96.32256-83.7632-84.66944-85.76-87.1936-85.76-108.34944 0-28.70272 18.18112-46.77632 47.0528-46.77632 18.2272 0 24.192 4.08576 68.3776 46.83264l48.4096 46.83264V229.5296l-49.92 46.7712c-48.50688 45.44512-50.49856 46.69952-70.38976 44.27264-26.368-3.22048-43.53024-22.1184-43.53024-47.93856 0-17.3568 6.59456-25.22624 96.2816-114.91328C782.582733 65.54112 787.533773 61.44 806.733773 61.44c19.22048 0 24.17152 4.1216 119.49056 99.44064l99.44064 99.44064-3.1232 19.59936c-4.0448 25.42592-23.424 42.63936-47.98976 42.63936-16.31744 0-23.94624-5.49376-68.83328-49.59744L855.235533 223.36512v577.26976l50.4832-49.59744c44.45184-43.6736 52.62336-49.59744 68.42368-49.59744 25.82016 0 44.93312 20.3008 44.93312 47.72864 0 19.98336-3.1744 23.93088-88.32 109.77792-107.96032 108.85632-116.9664 114.5088-149.76 93.94176zM17.705933 909.74208c-19.70176-16.9472-19.70176-51.50208 0-68.44416L31.483853 829.44h222.7712c149.7856 0 226.1504 1.81248 233.10336 5.5296 5.6832 3.0464 13.62944 13.4144 17.65376 23.04 6.33856 15.17568 6.33856 19.84512 0 35.0208-4.02432 9.6256-11.96544 19.9936-17.65376 23.04-6.94784 3.71712-83.31776 5.5296-233.10336 5.5296H31.488973z m4.50048-359.35744c-14.57152-10.20416-23.71584-38.36928-17.63328-54.28736C7.158733 489.35424 14.377933 479.232 20.624333 473.6c10.99776-9.9072 18.57024-10.24 232.49408-10.24 204.42112 0 222.19264 0.69632 235.2128 9.22624 19.12832 12.53888 25.66656 31.232 18.50368 52.93568C495.811533 558.9504 502.528973 558.08 256.195533 558.08c-190.14144 0-224.61952-1.13152-233.98912-7.69536z m2.72384-363.65824C8.310733 177.70496-2.093107 150.02112 4.573133 132.57728 7.158733 125.83424 14.377933 115.712 20.624333 110.08c10.9312-9.85088 19.57376-10.2912 227.1488-11.5968 197.6832-1.24928 217.2928-0.60416 233.7024 7.68 24.25344 12.2368 33.29024 31.83104 25.52832 55.3472-10.9312 33.1264-10.53696 33.0752-251.8272 32.8448-179.16928-0.16896-218.93632-1.4848-230.24128-7.6288z" fill="#494949" p-id="2553"></path><path d="M786.115533 954.60352c-19.0208-9.76896-174.60736-163.54304-184.66816-182.50752-21.2992-40.16128 8.81152-79.27808 52.56704-68.3008 7.6032 1.90976 34.0992 23.31648 58.88 47.5648l45.06112 44.09344v-283.15136c0-268.8512-0.45056-282.81344-8.96-276.34688-4.93056 3.74784-27.68896 24.76544-50.57536 46.70976-45.27104 43.40224-54.57408 46.76608-82.4064 29.7984-18.0736-11.02336-24.84736-28.288-19.64032-50.06336 2.1504-8.99584 37.23776-47.81056 97.19808-107.52C781.968333 66.85696 788.521933 61.44 806.682573 61.44c18.16576 0 24.87296 5.53984 115.59424 95.46752 102.36416 101.46304 109.07136 111.37024 94.5152 139.52512-9.69216 18.7392-22.19008 26.12736-44.17536 26.12736-13.87008 0-24.2432-7.69536-66.89792-49.59744L855.235533 223.36512v577.26976l50.4832-49.59744c52.74112-51.8144 63.8464-57.2416 89.37472-43.64288 17.33632 9.23648 23.64416 20.44416 23.81824 42.35264 0.1536 19.3024-3.5584 23.90528-88.15616 109.19936-106.26048 107.14112-113.26976 111.77472-144.64 95.65696zM24.034253 915.79904c-5.19168-3.01568-12.70784-13.312-16.70656-22.8864-6.28736-15.03744-6.27712-19.7632 0.04608-34.90304 4.02432-9.6256 11.96544-19.9936 17.65376-23.04 14.35648-7.68 447.97952-7.68 462.336 0 5.6832 3.0464 13.62944 13.4144 17.65376 23.04 6.33856 15.17568 6.33856 19.84512 0 35.0208-4.02432 9.6256-11.96544 19.9936-17.65376 23.04-14.27456 7.63904-450.1504 7.38816-463.32928-0.26624z m0-363.52C11.131853 544.77824 0.553933 517.5808 3.840973 500.36224c1.48992-7.80288 8.50432-18.74944 15.58528-24.32C31.801293 466.31424 40.894413 465.92 254.659533 465.92c149.49376 0 225.75104 1.81248 232.704 5.5296 5.6832 3.0464 13.62432 13.4144 17.64864 23.04 6.33856 15.17568 6.33856 19.84512 0 35.0208-4.02432 9.6256-11.96544 19.9936-17.65376 23.04-14.27456 7.63904-450.1504 7.38816-463.32928-0.26624z m1.024-365.48096c-27.63776-15.01696-28.97408-56.56576-2.4576-76.36992 13.71648-10.24512 21.01248-10.63424 226.05824-12.032 178.82624-1.21856 214.74816-0.24576 230.21568 6.21568 37.888 15.83104 40.79104 67.712 4.6336 82.82112-25.46688 10.63936-438.74816 10.06592-458.4448-0.63488z" fill="#333333" p-id="2554"></path></svg>